<svg id="close-burger" xmlns="http://www.w3.org/2000/svg" xmlns:xlink="http://www.w3.org/1999/xlink" width="18.365" height="15.339" viewBox="0 0 18.365 15.339">
  <defs>
    <clipPath id="clip-path">
      <rect id="Rectangle_693" data-name="Rectangle 693" width="20.784" height="3.227" transform="translate(0 0)" fill="#106637"/>
    </clipPath>
  </defs>
  <g id="Groupe_1718" data-name="Groupe 1718" transform="translate(-1261.321 -90.485)">
    <g id="Groupe_1719" data-name="Groupe 1719" transform="matrix(-0.788, -0.616, 0.616, -0.788, 1277.699, 105.825)">
      <g id="Groupe_1430" data-name="Groupe 1430" transform="translate(0 0)" clip-path="url(#clip-path)">
        <path id="Tracé_199" data-name="Tracé 199" d="M13.4,2.938C6.837,2.589,2.706,2.338,0,1.98V0C2.5.349,6.578.6,13.475.973c3.259.172,5.6.29,7.31.285v1.97c-1.821,0-4.2-.123-7.386-.29" transform="translate(0 0)" fill="#106637"/>
      </g>
    </g>
    <g id="Groupe_1720" data-name="Groupe 1720" transform="matrix(0.788, -0.616, 0.616, 0.788, 1261.321, 103.282)">
      <g id="Groupe_1430-2" data-name="Groupe 1430" transform="translate(0 0)" clip-path="url(#clip-path)">
        <path id="Tracé_199-2" data-name="Tracé 199" d="M13.4.29C6.837.639,2.706.89,0,1.248v1.98c2.5-.349,6.578-.6,13.475-.973,3.259-.172,5.6-.29,7.31-.285V0c-1.821,0-4.2.123-7.386.29" transform="translate(0 0)" fill="#106637"/>
      </g>
    </g>
  </g>
</svg>
