<svg xmlns="http://www.w3.org/2000/svg" width="32.7" height="23.41" viewBox="0 0 32.7 23.41">
  <g id="Groupe_1497" data-name="Groupe 1497" transform="translate(0.35 0.35)">
    <path id="Tracé_1719" data-name="Tracé 1719" d="M44.283,61.462a3.678,3.678,0,1,1,3.712-3.678A3.7,3.7,0,0,1,44.283,61.462Zm0-6.324a2.646,2.646,0,1,0,2.68,2.646A2.666,2.666,0,0,0,44.283,55.138Zm0,0" transform="translate(-37.953 -50.615)" stroke="#3c3c3c" stroke-width="0.7"/>
    <path id="Tracé_1720" data-name="Tracé 1720" d="M7.823,191.164H1.349A1.346,1.346,0,0,1,0,189.824v-1.688a6.343,6.343,0,0,1,10.108-5.029.516.516,0,0,1-.613.831,5.31,5.31,0,0,0-8.462,4.2v1.688a.313.313,0,0,0,.317.308H7.824a.516.516,0,1,1,0,1.032Zm0,0" transform="translate(0 -170.134)" stroke="#3c3c3c" stroke-width="0.7"/>
    <path id="Tracé_1721" data-name="Tracé 1721" d="M342.049,185.113h-6.474a.516.516,0,1,1,0-1.032h6.475a.313.313,0,0,0,.317-.308v-1.688a5.273,5.273,0,0,0-5.3-5.236,5.345,5.345,0,0,0-3.354,1.183.516.516,0,1,1-.649-.8,6.382,6.382,0,0,1,4-1.413,6.306,6.306,0,0,1,6.33,6.268v1.688A1.346,1.346,0,0,1,342.049,185.113Zm0,0" transform="translate(-311.398 -164.473)" stroke="#3c3c3c" stroke-width="0.7"/>
    <path id="Tracé_1722" data-name="Tracé 1722" d="M344.064,57.508a3.678,3.678,0,1,1,3.712-3.678A3.7,3.7,0,0,1,344.064,57.508Zm0-6.324a2.646,2.646,0,1,0,2.68,2.646A2.666,2.666,0,0,0,344.064,51.185Zm0,0" transform="translate(-318.393 -46.917)" stroke="#3c3c3c" stroke-width="0.7"/>
    <path id="Tracé_1723" data-name="Tracé 1723" d="M128.96,168.488h-14.01a1.683,1.683,0,0,1-1.688-1.675v-2.374a8.693,8.693,0,0,1,17.386,0v2.374A1.683,1.683,0,0,1,128.96,168.488Zm-7.005-11.623a7.626,7.626,0,0,0-7.661,7.574v2.374a.65.65,0,0,0,.655.643h14.01a.65.65,0,0,0,.655-.643v-2.374A7.626,7.626,0,0,0,121.955,156.865Zm0,0" transform="translate(-105.955 -145.778)" stroke="#3c3c3c" stroke-width="0.7"/>
    <path id="Tracé_1724" data-name="Tracé 1724" d="M176.051,9.451a4.753,4.753,0,0,1-4.77-4.726,4.771,4.771,0,0,1,9.541,0A4.753,4.753,0,0,1,176.051,9.451Zm0-8.418a3.72,3.72,0,0,0-3.738,3.693,3.738,3.738,0,0,0,7.476,0A3.72,3.72,0,0,0,176.051,1.032Zm0,0" transform="translate(-160.231)" stroke="#3c3c3c" stroke-width="0.7"/>
  </g>
</svg>
