<svg xmlns="http://www.w3.org/2000/svg" width="32" height="32" viewBox="0 0 32 32">
  <g id="Groupe_1494" data-name="Groupe 1494" transform="translate(-288 -912)">
    <g id="Groupe_1489" data-name="Groupe 1489" transform="translate(288 912)">
      <g id="Groupe_1488" data-name="Groupe 1488">
        <g id="Groupe_1487" data-name="Groupe 1487">
          <g id="Groupe_1486" data-name="Groupe 1486">
            <path id="Tracé_1713" data-name="Tracé 1713" d="M108.121,214.06a.727.727,0,0,0-1.455,0c0,1.91,2.107,4.532,2.347,4.825a.728.728,0,1,0,1.125-.923C109.358,217.012,108.121,215.113,108.121,214.06Z" transform="translate(-99.393 -198.788)"/>
            <path id="Tracé_1714" data-name="Tracé 1714" d="M312.246,213.333a.727.727,0,0,0-.727.727c0,1.049-1.237,2.95-2.017,3.9a.727.727,0,0,0,1.125.923c.24-.293,2.347-2.915,2.347-4.825A.727.727,0,0,0,312.246,213.333Z" transform="translate(-288.246 -198.788)"/>
            <path id="Tracé_1715" data-name="Tracé 1715" d="M224.727,213.333a.727.727,0,0,0-.727.727v4.364a.727.727,0,0,0,1.455,0V214.06A.727.727,0,0,0,224.727,213.333Z" transform="translate(-208.727 -198.788)"/>
            <path id="Tracé_1716" data-name="Tracé 1716" d="M24,2.909a7.617,7.617,0,0,0-1.38.147,8.7,8.7,0,0,0-13.241,0A7.625,7.625,0,0,0,8,2.909,8,8,0,0,0,4.381,18.038L4.366,29.029A2.968,2.968,0,0,0,7.334,32H24.669a2.97,2.97,0,0,0,2.967-2.967v-11A8,8,0,0,0,24,2.909Zm2.182,26.124a1.515,1.515,0,0,1-1.513,1.513H7.334a1.513,1.513,0,0,1-1.513-1.515l0-2.849H26.182Zm.45-12.137a.652.652,0,0,0-.109.056.728.728,0,0,0-.334.511.7.7,0,0,0-.008.122v7.143H5.827l.009-7.133a.749.749,0,0,0-.007-.119.729.729,0,0,0-.115-.3.721.721,0,0,0-.216-.211.761.761,0,0,0-.114-.059A6.543,6.543,0,0,1,8,4.364c.141,0,.29.017.436.029A8.664,8.664,0,0,0,7.273,8.727a.727.727,0,0,0,1.455,0,7.273,7.273,0,1,1,14.545,0,.727.727,0,1,0,1.455,0,8.664,8.664,0,0,0-1.163-4.335c.146-.012.3-.029.436-.029A6.542,6.542,0,0,1,26.632,16.9Z"/>
          </g>
        </g>
      </g>
    </g>
  </g>
</svg>
