<svg xmlns="http://www.w3.org/2000/svg" xmlns:xlink="http://www.w3.org/1999/xlink" width="244.349" height="211.813" viewBox="0 0 244.349 211.813">
  <defs>
    <clipPath id="clip-path">
      <rect id="Rectangle_765" data-name="Rectangle 765" width="208.125" height="160.67" fill="#fff"/>
    </clipPath>
  </defs>
  <g id="Groupe_1635" data-name="Groupe 1635" transform="translate(0 57.367) rotate(-16)" clip-path="url(#clip-path)">
    <path id="Tracé_618" data-name="Tracé 618" d="M724.948.176c.338,1.1.833,2.622.186,3.717s-1.649.281-2.428-.228c-.143-.093-.443-.06-.348.177.313.787,2.348,7.879.518,7.334-.2-.059-.268.107-.22.272.372,1.277-.216,2.653-.372,3.924-.047.382.021,1.238-.357,1.418-.5.237-1.132-.743-1.453-1.06-.174-.172-.459-.07-.359.192a9.06,9.06,0,0,1,.277,5A5.405,5.405,0,0,1,720,22.566c-.637,1.077-1.44-.258-1.754-.794-.177-.3-.645-.3-.442.116.768,1.559.489,3.266.282,4.921-.074.589-.118,1.182-.218,1.767a3.773,3.773,0,0,1-.3,1.123c-.246.453-.977,1.2-1.585.516-.141-.159-.441-.259-.443.045a25.165,25.165,0,0,1-1.023,5.783,6.026,6.026,0,0,1-1.043,2.55c-.4.452-1.05.477-1.391.949a10,10,0,0,0-.707,2.481c-.337.983-.693,1.96-1.036,2.942-.313.9-.642,1.794-.993,2.68a3.474,3.474,0,0,1-.767,1.454c-.69.539-1.037.226-1.631.186-.452-.03-.195.471.118.5.659.068,1.159.417,1.78.006a4.291,4.291,0,0,0,1.186-2.087,59.578,59.578,0,0,0,2.325-6.84,1.936,1.936,0,0,1,.475-1.077,2.957,2.957,0,0,1,.476-.2,2.31,2.31,0,0,0,.8-.71,6.894,6.894,0,0,0,.926-2.37,26.089,26.089,0,0,0,1.049-6.064l-.443.045a1.3,1.3,0,0,0,1.575.475c.893-.37,1.083-1.382,1.213-2.232.344-2.249.856-4.833-.183-6.96l-.442.116c.564.972,1.987,2.932,2.745.991a10.163,10.163,0,0,0,.073-6.933l-.359.192c.573.568,1.882,2.176,2.389.673a21.132,21.132,0,0,0,.452-2.634,5.6,5.6,0,0,0,.06-2.7l-.22.272c2.688.8.439-6.727-.026-7.822l-.348.177c.681.454,1.852,1.381,2.7.741,1.257-.954.612-3.4.265-4.574-.072-.245-.681-.406-.584-.09" transform="translate(-533.371 0)" fill="#fff"/>
    <path id="Tracé_619" data-name="Tracé 619" d="M614.465,201.634a9.13,9.13,0,0,1-.871,3.09,16.761,16.761,0,0,1-1.57,3.356c-.836,1.287-2.133,2.829-3.773,1.909-1.226-.688-1.508-2.277-1.742-3.593-.04-.222-.644-.444-.635-.136a8.685,8.685,0,0,0,.665,2.311,5.255,5.255,0,0,1-.217,3.76,8.605,8.605,0,0,1-1.662,2.2,4.792,4.792,0,0,1-1.475,1.183c-.858.249-1.363-.41-1.929-.835-.108-.081-.384-.162-.431.036-.355,1.484-1.732,2.713-2.826,3.692-.82.734-1.933,1.981-3.142.937-.447-.385-.636-.955-1.167-1.274-.11-.066-.434-.165-.52.008-.545,1.1-.666,2.325-1.4,3.334-.9,1.232-1.967,2.373-2.981,3.51a36.29,36.29,0,0,1-2.788,2.8,3.9,3.9,0,0,0-.906,1.051c-.226.429-.249.983-.609,1.336-.256.251.381.427.575.244a2.233,2.233,0,0,0,.5-.926,3.9,3.9,0,0,1,1.168-1.567,34.143,34.143,0,0,0,2.93-2.989c.833-.957,1.7-1.9,2.486-2.9.9-1.148,1.011-2.354,1.645-3.624l-.52.008c.784.464,1.048,1.452,1.92,1.835a2.3,2.3,0,0,0,2.4-.6c1.471-1.11,3.41-2.715,3.848-4.59l-.431.036c.583.442,1.2,1.218,2.009,1.17,1.12-.065,2.266-1.456,2.919-2.251a5.632,5.632,0,0,0,1.47-3.745c-.009-1.413-.837-2.583-.884-3.949l-.635-.136c.392,2.065,1.528,5.468,4.309,4.454,1.669-.608,2.718-2.692,3.372-4.215a12.459,12.459,0,0,0,1.416-4.7c0-.223-.513-.538-.513-.229" transform="translate(-441.082 -152.081)" fill="#fff"/>
    <path id="Tracé_620" data-name="Tracé 620" d="M729.217,179.812c-.187.557-.6,1.891-1.386,1.513-.362-.174-.633-.76-.8-1.109a6.746,6.746,0,0,1-.69-2.759l-1.074.418c.022.817.138,1.637.081,2.453a21.414,21.414,0,0,1-.485,2.712c-.119.592-.2,1.187-.3,1.782-.15.881-.21,1.325-1.21.94-.359-.138-.758.377-.841.65a11.3,11.3,0,0,1-1.712,3.7c-.654.815-1.084.056-1.469-.66a7.634,7.634,0,0,1-.712-3.248c-.058-.776-1.06.139-1.127.509-.16.89-.009,1.784-.2,2.667a10.056,10.056,0,0,1-.99,2.87c-.2.332-.529,1.006-1.013.948-.335-.04-.493-.523-.6-.784a5.5,5.5,0,0,0-.718-1.519c-.258-.317-.778.2-.9.38-.374.562-.635,1.2-.95,1.795-.41.773-.947,1.461-1.417,2.2-.713,1.12-1.655,2.563-3.214,2.137-1.106-.3-1.019-1.109-1.138-2.048-.1-.8-1.053.079-1.156.436-.394,1.368-1.741,2.439-2.723,3.4-1.1,1.071-2.215,2.111-3.4,3.087a10.063,10.063,0,0,1-3.228,2.133c-1.564.453-1.416-1.112-1.4-2.175.012-.84-1.066-.119-1.08.448-.023.942-.232,2.42.785,2.947,1.369.709,3.335-.91,4.317-1.667a55.859,55.859,0,0,0,4.9-4.38,9.888,9.888,0,0,0,2.978-4.087l-1.156.436c.12.93.056,1.856.966,2.386a3.249,3.249,0,0,0,3.483-.377c2.093-1.53,2.932-4.308,4.322-6.385l-.9.379c.56.693.445,1.875,1.305,2.342.773.42,1.585-.125,2.1-.7a7.911,7.911,0,0,0,1.572-3.133,12.857,12.857,0,0,0,.466-1.754c.114-.784-.025-1.567.115-2.352l-1.127.509c.1,1.3.794,6.172,3.167,4.654,1.565-1,2.387-3.5,2.9-5.186l-.841.65c1.543.591,2.506-.437,2.827-1.9.267-1.213.434-2.46.662-3.683a17.994,17.994,0,0,0,.137-3.939c-.022-.832-1.073-.143-1.074.418,0,1.417.492,3.729,1.753,4.587,1.666,1.133,2.856-1.643,3.239-2.79.29-.87-.846-.452-1.043.139" transform="translate(-523.276 -133.641)" fill="#fff"/>
    <path id="Tracé_621" data-name="Tracé 621" d="M781.694.517a19.955,19.955,0,0,0,2.839,4.927c.633.868,1.467,1.323,2.162.258l-.535-.36c.054.834.268,5.824,1.982,5.174l-.414-.414a10.925,10.925,0,0,0,.987,3.384c.389,1.029.57,2.4,1.368,3.22a1.011,1.011,0,0,0,1.581.081c.735-.726.555-1.75.578-2.685l-.446-.011a23.892,23.892,0,0,1,.016,3.178c.047.868.2,1.756.329,2.615a13.884,13.884,0,0,0,.76,3.353c.273.641.873,1.335,1.514.654.6-.641.369-1.812.628-2.577l-.425-.119c-1,3.258-.08,6.629.093,9.937.049.933,0,3.021,1.081,3.485.939.4,1.781-.837,2.221-1.461.192-.271-.06-.625-.311-.315a4.945,4.945,0,0,0-1.371,2.551,28.464,28.464,0,0,0-.058,4.575c.058,2.049.471,4.4-.116,6.418-.129.442.436.263.525-.044a13.434,13.434,0,0,0,.281-4.119c-.044-1.357-.136-2.7-.126-4.056.005-.718-.061-1.437-.033-2.154a4.479,4.479,0,0,1,1.154-2.784l-.311-.315a5.707,5.707,0,0,1-.559.713q-1.405.589-1.591-.614a7.242,7.242,0,0,1-.255-1.779c-.063-.974-.141-1.938-.26-2.907-.286-2.336-.642-4.716.062-7.011.125-.408-.291-.516-.425-.119-.214.633,0,1.647-.612,2-.494.283-.5.062-.715-.386a4.157,4.157,0,0,1-.22-.66c-.093-.331-.158-.67-.228-1.006a26.87,26.87,0,0,1-.588-3.9,24.72,24.72,0,0,0-.022-3.235c-.063-.335-.435-.412-.447-.011-.019.667.219,1.919-.543,2.3-1.181.595-1.664-1.659-1.865-2.268a13.62,13.62,0,0,1-1.115-3.714c-.006-.159-.21-.492-.414-.414-.791.3-1.081-3.716-1.115-4.315-.009-.16-.373-.606-.535-.359-.459.7-.863.516-1.34-.114a11.018,11.018,0,0,1-.587-1.005,18.833,18.833,0,0,1-2-3.5c-.082-.238-.694-.4-.587-.09" transform="translate(-589.956 -0.261)" fill="#fff"/>
    <path id="Tracé_622" data-name="Tracé 622" d="M631.813,277.98a19.28,19.28,0,0,1-5.052,2.9,32.45,32.45,0,0,0-5.025,2.142,30.987,30.987,0,0,0-4.575,3.358c-1.02.86-4.094,2.495-3.626-.178.089-.507-1.22-.557-1.317-.074-.328,1.65.762,2.47,2.356,2.459,1.907-.013,3.251-1.116,4.624-2.308a20.985,20.985,0,0,1,6.794-3.825A17.966,17.966,0,0,0,632.575,279c.4-.374-.326-1.359-.762-1.016" transform="translate(-462.013 -209.745)" fill="#fff"/>
    <path id="Tracé_623" data-name="Tracé 623" d="M483.223,309.828c-.941.236-1.642.938-2.576,1.225a20.055,20.055,0,0,1-3.187.559,36.341,36.341,0,0,0-5.615.91,30.138,30.138,0,0,0-5.311,2.413,6.74,6.74,0,0,1-2.386.923c-1.62.136-1.205-1.794-.479-2.57l-1.161-.208c-.179.334-1.044.623-1.374.784-.509.25-1.037.449-1.56.667a17.406,17.406,0,0,1-3.282,1.074,31.6,31.6,0,0,0-5.828,1.528c-2.039.844-3.821,2.255-6.052,2.647-2.142.376-2.578-1.506-1.834-3.082a4.748,4.748,0,0,0,.795-1.847c.012-.7-1.13-.177-1.156.339-.03.6-.594,1.117-.843,1.65a4.241,4.241,0,0,0-.42,1.478,2.418,2.418,0,0,0,1.469,2.434,4.49,4.49,0,0,0,2.946-.335,18.6,18.6,0,0,0,3.642-1.482c2.651-1.469,5.325-1.975,8.252-2.628a20.876,20.876,0,0,0,3.711-1.392c.893-.388,2.256-.85,2.771-1.74.375-.648-.91-.455-1.161-.208-1.077,1.064-1.461,3.15.246,3.741,2.177.754,4.435-.888,6.268-1.791a23.155,23.155,0,0,1,3.652-1.481,30.974,30.974,0,0,1,4.242-.656c1.16-.17,2.335-.272,3.485-.5a7.466,7.466,0,0,0,1.827-.577,16.709,16.709,0,0,1,1.606-.926c.654-.237-.216-1.064-.688-.946" transform="translate(-332.796 -233.827)" fill="#fff"/>
    <path id="Tracé_624" data-name="Tracé 624" d="M391.234,328.728a24.273,24.273,0,0,1-2.444,1.371c-.936.564-1.844,1.173-2.773,1.748-1.587.982-3.306,1.707-4.883,2.71a19.956,19.956,0,0,1-2.533,1.457c-.981.438-3.564,1.259-3.87-.644-.3-1.879,2.481-4.193,3.6-5.435a.334.334,0,0,0-.067-.529l-.011-.005a.883.883,0,0,0-1.1.371l-.024.051c-.3.634,1.009.526,1.241.042l.025-.051-1.1.371.011.005q-.034-.265-.067-.529a34.162,34.162,0,0,0-2.668,3.084c-.61.863-1.5,2.019-1.107,3.146.61,1.76,3.428,1.765,4.871,1.395,2.4-.616,4.548-2.33,6.763-3.415a43.232,43.232,0,0,0,3.914-2.366,15.82,15.82,0,0,0,3.17-1.929c.389-.411-.523-1.178-.946-.848" transform="translate(-281.789 -248.04)" fill="#fff"/>
    <path id="Tracé_625" data-name="Tracé 625" d="M266.71,331.852c-2.118,1.441-3.843,3.356-5.89,4.886a49.848,49.848,0,0,1-6.669,4.119c-2.16,1.135-4.6,2.632-7.124,2.618a3.952,3.952,0,0,1-1.486-.207,2.419,2.419,0,0,1-.983-1.529c-.392-1.369.2-2.618.435-3.952.137-.787-.815-.317-1.035.037-.719,1.157-.892,2.517-1.623,3.644-.821,1.267-1.962,2.281-2.843,3.5a30.351,30.351,0,0,1-2.15,2.94c-.879.954-1.8,1.856-2.643,2.841-.881,1.026-5.327,6.735-6.457,3.59a3.953,3.953,0,0,1,.46-3.467c.315-.393.84-.882.831-1.429-.013-.786-1.012-.091-1,.445-.006-.358-.155.076-.266.2-.168.179-.321.385-.471.58a3.273,3.273,0,0,0-.62,1.154,6.122,6.122,0,0,0-.012,3.287,2.207,2.207,0,0,0,2.4,1.189,6.161,6.161,0,0,0,3.164-2.11c1.22-1.306,2.386-2.654,3.588-3.975a31.163,31.163,0,0,0,3.2-3.685c.88-1.335,1.923-2.478,2.907-3.73a9.036,9.036,0,0,0,1.32-2.062,15.631,15.631,0,0,1,1.2-2.806l-1.034.037c-.346,1.777-1.643,4.679.5,5.937,2.322,1.364,5.891-.06,8.064-1.089a71.75,71.75,0,0,0,8.023-4.46c2.589-1.664,4.761-3.839,7.2-5.7.487-.371-.549-1.091-.978-.8" transform="translate(-171.278 -250.407)" fill="#fff"/>
    <path id="Tracé_626" data-name="Tracé 626" d="M159.882,402.49a24.113,24.113,0,0,1-2.141,3.922c-.9,1.28-1.86,2.5-2.835,3.717a16.109,16.109,0,0,0-2.208,3.663c-.286.658-.536,1.331-.762,2.012a5.927,5.927,0,0,1-.388,1.242c-.439.391-.78-.1-1.04-.371-.2-.209-1.11-.587-1.122-.014a7.964,7.964,0,0,1-1.39,4.014,8.832,8.832,0,0,1-1.314,1.674c-.68.66-1.03.708-1.776.065-.265-.228-1.276-.463-1.2.172a5.718,5.718,0,0,1-1.278,3.519c-.662,1.065-1.34,2.108-1.956,3.2a11.833,11.833,0,0,0-1.373,2.925c-.088.366-.047.79-.166,1.145-.145.432-.106.434-.527.354a3.892,3.892,0,0,1-.719-.411l-1.144.529.048.029c.429.257,1.6-.272,1.007-.7l-.055-.04c-.356-.259-1.216.023-1.144.528.118.837,2.09,1.235,2.739,1.089,1.376-.309,1.069-1.825,1.462-2.846a29.678,29.678,0,0,1,2.892-5.121c.817-1.279,1.759-2.6,1.546-4.148l-1.082.268a2.466,2.466,0,0,0,4.237-.246,8.966,8.966,0,0,0,2.479-5.611l-1.122-.013c.639.606,1.826,2.247,2.873,1.269.506-.473.63-1.652.851-2.284a18.712,18.712,0,0,1,1.334-3.05,51.419,51.419,0,0,1,3.448-4.635,22.252,22.252,0,0,0,2.96-5.215c.2-.521-.895-1.142-1.13-.632" transform="translate(-102.939 -303.627)" fill="#fff"/>
    <path id="Tracé_627" data-name="Tracé 627" d="M79.415,528.044a32.1,32.1,0,0,0-1.839,3.55c-.583,1.123-1.27,2.188-1.868,3.3-1.265,2.358-1.732,5.035-3.112,7.344a6.127,6.127,0,0,1-2.456,2.6,7.3,7.3,0,0,1-3.158.622,25.18,25.18,0,0,1-5.237-.795c-.7-.177-1.262.62-.386.829,3.853.921,8.631,2.537,11.5-1.215,1.745-2.286,2.231-5.048,3.431-7.588.653-1.382,1.495-2.662,2.226-4,.718-1.317,1.27-2.717,2-4.031.264-.478-.784-1.058-1.092-.611" transform="translate(-45.971 -398.408)" fill="#fff"/>
    <path id="Tracé_628" data-name="Tracé 628" d="M.089,275.614a11.5,11.5,0,0,0,3.6,3.73c1.9,1.46,3.935,2.777,5.961,4.051,3.149,1.981,6.3,3.987,9.5,5.88,1.833,1.085,3.472,2.367,5.413,3.274a42.375,42.375,0,0,0,6.028,2.239,96.313,96.313,0,0,0,12.371,2.558,220.062,220.062,0,0,0,29.077,3.044,105.051,105.051,0,0,0,14.633-.735c4.718-.563,9.364-1.557,14.02-2.482,4.6-.914,9.244-1.572,13.837-2.514a71.168,71.168,0,0,0,13.387-4.105,128.1,128.1,0,0,0,23.264-13.36,160.636,160.636,0,0,0,20.906-16.829,123.98,123.98,0,0,0,16.829-19.592c4.969-7.475,8.341-16,11.363-24.418a123.979,123.979,0,0,0,3.818-13.284c.53-2.227,1.044-4.462,1.408-6.724.268-1.661.276-3.351.385-5.027a12.779,12.779,0,0,1,.985-4.992c.256-.5-.328-1.672-.705-.931-1.434,2.817-1.115,6.248-1.384,9.306a47.474,47.474,0,0,1-1.253,6.607c-.528,2.252-1.05,4.511-1.658,6.743a115.664,115.664,0,0,1-4.4,12.711,135.944,135.944,0,0,1-5.447,12.47A93.41,93.41,0,0,1,176.728,253.8a144.032,144.032,0,0,1-19.508,17.42,182.7,182.7,0,0,1-22.575,14.632,82.659,82.659,0,0,1-12.488,5.406,93.945,93.945,0,0,1-13.452,3.081c-9.248,1.6-18.418,3.863-27.8,4.5-9.645.654-19.313-.2-28.878-1.447-8.55-1.111-17.582-2.029-25.651-5.243a50.275,50.275,0,0,1-8.951-5.08c-3.883-2.574-7.942-4.854-11.789-7.487-1.539-1.053-3.832-2.373-4.69-4.108-.3-.6-1.232-.631-.854.141" transform="translate(0 -139.743)" fill="#fff"/>
    <path id="Tracé_629" data-name="Tracé 629" d="M258.589,274.759a34.724,34.724,0,0,0-2.969,4.184c-1.862,3.333-2.907,7.048-4.788,10.386a71,71,0,0,1-6.093,9.072c-2.235,2.831-5.119,5.036-7.821,7.391-2.46,2.144-4.593,4.633-7.071,6.753-2.908,2.488-6.468,3.81-9.855,5.494-3.326,1.654-6.372,3.84-9.764,5.366a38.6,38.6,0,0,1-11.02,2.957c-1.754.207-3.532.191-5.265.563s-3.264,1.282-4.959,1.764a42.834,42.834,0,0,1-5.994.945c-1.947.259-3.907.4-5.854.666-4.007.55-7.966,1.393-11.958,2.034-3.855.618-7.809.592-11.63,1.4s-7.5,2.2-11.367,2.88c-3.732.661-7.514,1.053-11.208,1.922a109.905,109.905,0,0,0-11.141,3.531c-2.348.826-4.619,1.841-6.918,2.793a39.4,39.4,0,0,0-5.532,3.09,84.885,84.885,0,0,1-8.276,4.328c-3.4,1.62-6.487,3.516-10.276,4.077a24.092,24.092,0,0,1-9.821-.443c-1.109-.312-2.224-.645-3.3-1.062-.784-.3-.386.975.146,1.181a25.387,25.387,0,0,0,17.208.694,35.3,35.3,0,0,0,4.64-2.2c1.763-.907,3.574-1.717,5.357-2.582,2.329-1.131,4.5-2.472,6.713-3.8,4.733-2.83,9.989-4.636,15.22-6.324a73.594,73.594,0,0,1,10.945-2.845,107.5,107.5,0,0,0,11.376-2.077,63.011,63.011,0,0,1,11.5-2.483c4.005-.338,7.918-.922,11.872-1.638s7.912-1.2,11.905-1.694c1.987-.245,4-.493,5.967-.851a32.332,32.332,0,0,0,4.578-1.615,27.2,27.2,0,0,1,6.068-.859,42.659,42.659,0,0,0,5.091-.961,35.958,35.958,0,0,0,9.983-3.945c3.386-1.947,6.761-3.756,10.285-5.444a29.551,29.551,0,0,0,8.5-6.148c2.488-2.517,5.115-4.8,7.772-7.135A45.2,45.2,0,0,0,247.962,296a55.245,55.245,0,0,0,5.737-9.81c1.3-3.009,2.389-5.953,4.332-8.617q.667-.915,1.35-1.819c.322-.424-.418-1.481-.792-1" transform="translate(-56.808 -207.274)" fill="#fff"/>
    <path id="Tracé_630" data-name="Tracé 630" d="M814.088,225.471a8.894,8.894,0,0,0-.095,2.842c.069,1.437.187,2.894.161,4.332a23.622,23.622,0,0,1-.565,3.879,20.585,20.585,0,0,0-.087,3.967c0,.889.836.5.87-.191a23,23,0,0,1,.093-3.593,22.709,22.709,0,0,0,.6-3.886c.031-1.109-.043-2.218-.051-3.327a13.818,13.818,0,0,1,.079-3.294c.116-.5-.861-1.285-1-.731" transform="translate(-613.931 -170.026)" fill="#fff"/>
    <path id="Tracé_631" data-name="Tracé 631" d="M780.636,249.553a12.494,12.494,0,0,1,0,6.161c-.546,2.27-1.322,4.465-1.908,6.721-.553,2.129-.836,4.332-1.28,6.487-.23,1.116-.45,2.234-.69,3.348-.1.48-.241.962-.306,1.448a5.92,5.92,0,0,1-.141,1.61c-.22.5.416,1.569.739.839a12.655,12.655,0,0,0,.385-2.66q.367-1.764.749-3.526c.551-2.543.895-5.154,1.644-7.648.687-2.286,1.494-4.542,2.023-6.874a11.917,11.917,0,0,0-.179-5.739c-.125-.492-1.212-.9-1.032-.168" transform="translate(-585.865 -188.044)" fill="#fff"/>
    <path id="Tracé_632" data-name="Tracé 632" d="M734.068,262.164c-.611,3.113-2.827,5.593-4.193,8.392a36.053,36.053,0,0,0-2.954,9.322c-.662,3.472-1.139,7-1.884,10.45-.628,2.91-2.476,5.58-2.375,8.617.024.73.939,1.081.912.166-.053-1.809.775-3.407,1.4-5.054a26.779,26.779,0,0,0,1.19-4.452c.648-3.406,1.255-6.816,1.942-10.215a32.921,32.921,0,0,1,3.392-9.2c1.356-2.52,3.126-4.624,3.622-7.523.084-.492-.916-1.168-1.047-.5" transform="translate(-545.409 -197.652)" fill="#fff"/>
    <path id="Tracé_633" data-name="Tracé 633" d="M677.271,288.349a54.363,54.363,0,0,0-4.8,9.811,40.357,40.357,0,0,0-1.621,5.552c-.462,1.838-1.071,3.624-1.66,5.423-.615,1.876-1.185,3.763-1.757,5.652a33.435,33.435,0,0,0-1.478,5,52.812,52.812,0,0,1-.809,5.465c-.3,1.189-1.321,2.384-.947,3.632.245.816,1.055.5.828-.3a8.624,8.624,0,0,1,.692-1.447,13.881,13.881,0,0,0,.615-2.38c.319-1.766.35-3.589.745-5.34.352-1.559,1.036-3.047,1.484-4.583.556-1.9,1.187-3.784,1.821-5.663,1.137-3.372,1.737-6.979,3.1-10.262a62.229,62.229,0,0,1,4.836-9.866c.3-.46-.746-1.15-1.052-.695" transform="translate(-501.228 -217.512)" fill="#fff"/>
    <path id="Tracé_634" data-name="Tracé 634" d="M611.712,291.569c-2.066,2.967-4.8,5.064-7.4,7.514-2.288,2.158-3.293,5.153-4.788,7.837-.857,1.538-2.093,2.831-2.877,4.413a25.938,25.938,0,0,0-1.56,4.881c-.949,3.553-1.479,7.207-2.5,10.741-.6,2.067-1.456,4.029-2.245,6.027a29.074,29.074,0,0,0-1.022,2.943,6.533,6.533,0,0,1-.916,2.658c-.35.42.474,1.465.9.971a5.1,5.1,0,0,0,.852-2.284,25.44,25.44,0,0,1,1.1-3.3c.88-2.234,1.846-4.414,2.5-6.731,1.3-4.606,1.824-9.459,3.49-13.962.8-2.166,2.418-3.8,3.5-5.811a57.936,57.936,0,0,1,2.993-5.609,28.319,28.319,0,0,1,4.576-4.495,24.72,24.72,0,0,0,4.385-5.037c.287-.46-.68-1.207-.989-.763" transform="translate(-444.02 -219.953)" fill="#fff"/>
    <path id="Tracé_635" data-name="Tracé 635" d="M537.215,323.625a24.038,24.038,0,0,0-7.521,8.179,35.954,35.954,0,0,0-2.253,5.355c-.782,1.99-1.325,4.058-2.093,6.055a35.614,35.614,0,0,0-1.667,6.039,38.27,38.27,0,0,1-2.037,6.484c-.761,1.948-1.455,3.9-2.09,5.893a12.727,12.727,0,0,1-1.1,2.741,4.982,4.982,0,0,0-.849,1.986c-.074.617.8,1.35.915.459.1-.821.814-1.5,1.149-2.237a23.715,23.715,0,0,0,.915-2.616c.611-1.91,1.318-3.77,2.053-5.635a42.464,42.464,0,0,0,1.756-5.141,48.22,48.22,0,0,1,1.659-6.341c1.523-3.794,2.5-7.86,4.33-11.53a26.624,26.624,0,0,1,3.366-4.756,19.115,19.115,0,0,1,4.221-3.974c.5-.328-.319-1.222-.753-.96" transform="translate(-390.645 -244.212)" fill="#fff"/>
    <path id="Tracé_636" data-name="Tracé 636" d="M465.831,336.406a23.029,23.029,0,0,0-3.148,4.622c-1.055,1.772-2.321,3.391-3.3,5.214a49.086,49.086,0,0,0-4.283,11.036c-.988,3.886-2.012,7.812-2.7,11.764a24.294,24.294,0,0,1-1.337,5.934,8.041,8.041,0,0,0-1.153,3.826c.058.715.975,1.077.907.165-.115-1.541,1.17-3.116,1.65-4.54a37.42,37.42,0,0,0,.957-5.149c.725-3.886,1.723-7.77,2.747-11.587a48.393,48.393,0,0,1,4.36-10.866c.871-1.568,1.954-2.986,2.895-4.509a30.1,30.1,0,0,1,3.21-4.937c.375-.405-.43-1.359-.808-.973" transform="translate(-339.552 -253.827)" fill="#fff"/>
    <path id="Tracé_637" data-name="Tracé 637" d="M401.233,346.84a21.717,21.717,0,0,0-2.74,4.224,43.408,43.408,0,0,0-1.943,5.129,34.945,34.945,0,0,1-2.26,4.926,13.279,13.279,0,0,0-1.127,4.461c-.417,3.708-.627,7.449-1,11.165a89.49,89.49,0,0,1-1.374,11.445c-.117.5.76,1.5.938.817.889-3.427.991-7.019,1.334-10.528.374-3.821.7-7.642,1.046-11.465a13.551,13.551,0,0,1,1.457-5.573,23.462,23.462,0,0,0,1.95-4.288,45.07,45.07,0,0,1,1.833-4.944,28.49,28.49,0,0,1,2.774-4.536c.289-.413-.523-1.307-.889-.832" transform="translate(-294.933 -261.668)" fill="#fff"/>
    <path id="Tracé_638" data-name="Tracé 638" d="M336.015,363.472c-.552,1.794-1.383,3.408-1.853,5.243a24.114,24.114,0,0,1-1.788,5.2,13.41,13.41,0,0,0-1.62,4.662,57.075,57.075,0,0,0-.23,6.1,78.71,78.71,0,0,1-.813,12.217,19.72,19.72,0,0,1-1.188,5.006c-.3.638-1.044,1.648-.91,2.386.11.6,1.157,1.13,1,.248.059.322.058-.053.146-.228.126-.25.228-.515.347-.768.17-.363.36-.718.522-1.084a22.777,22.777,0,0,0,1.23-5.514,86.448,86.448,0,0,0,.795-11.907c.042-1.9.027-3.834.242-5.728a14.764,14.764,0,0,1,1.823-5.048,27.121,27.121,0,0,0,1.752-5.347c.43-1.687,1.35-3.248,1.669-4.947.092-.493-.943-1.064-1.121-.486" transform="translate(-247.247 -274.138)" fill="#fff"/>
    <path id="Tracé_639" data-name="Tracé 639" d="M273.611,384.106a13.508,13.508,0,0,1-.83,4.69c-.587,1.541-1.544,2.91-2.1,4.466-1.112,3.114-.952,6.6-1.013,9.856-.065,3.493.352,6.973.314,10.466a37.562,37.562,0,0,1-.55,5.5,12.837,12.837,0,0,0-.16,4.209c.1.593,1.125,1.122.983.245a14.994,14.994,0,0,1,.386-4.871,30.627,30.627,0,0,0,.408-4.649c.052-3.672-.389-7.334-.26-11.007.118-3.383-.041-6.88,1.41-10.027,1.3-2.811,2.729-5.325,2.507-8.544-.033-.478-1.09-1.018-1.1-.338" transform="translate(-203.141 -289.653)" fill="#fff"/>
    <path id="Tracé_640" data-name="Tracé 640" d="M214.91,432.028c-.03,2.742-.656,5.438-.68,8.177-.026,2.969.711,5.874.645,8.856a81.528,81.528,0,0,1-.868,8.476c-.186,1.459-.286,2.92-.432,4.381a31.985,31.985,0,0,1-.864,3.72c-.136.609.687,1.366.885.5.272-1.186.719-2.329.873-3.541.186-1.462.256-2.94.445-4.4.366-2.836.846-5.665.943-8.528.09-2.661-.411-5.238-.55-7.884-.162-3.1.666-6.153.646-9.252,0-.487-1.037-1.159-1.043-.5" transform="translate(-160.527 -325.855)" fill="#fff"/>
    <path id="Tracé_641" data-name="Tracé 641" d="M181.406,476.5a16.54,16.54,0,0,0-.614,6.815,59.709,59.709,0,0,1-1.078,14.569c-.217.91-.519,1.791-.761,2.693-.256.953-.321,2.215-1.1,2.914-.409.368.049,1.625.516,1.216,1.21-1.06,1.338-3.134,1.763-4.592a42.165,42.165,0,0,0,1.3-7.186,50.548,50.548,0,0,0,.422-7.877c-.119-2.636-.4-5.276.482-7.823.146-.422-.754-1.221-.933-.73" transform="translate(-134.11 -359.512)" fill="#fff"/>
    <path id="Tracé_642" data-name="Tracé 642" d="M153.714,504.993a31.015,31.015,0,0,1-.4,5.564c-.263,2.007-.472,4.021-.732,6.028-.262,2.023-.578,4.038-.84,6.061-.247,1.91-.26,4.314-1.64,5.81-.395.428.315,1.6.684,1.034a11.4,11.4,0,0,0,1.646-4.961c.313-2.167.639-4.333.948-6.5.305-2.146.556-4.3.851-6.445a26.672,26.672,0,0,0,.429-6.157c-.045-.469-.981-1.189-.944-.435" transform="translate(-113.198 -380.884)" fill="#fff"/>
    <path id="Tracé_643" data-name="Tracé 643" d="M119.456,538.861c.094,1.32-.7,2.976-1.017,4.268-.386,1.6-.907,3.152-1.338,4.736-.756,2.778-1.689,5.958-4.349,7.518-.5.292-.057,1.523.459,1.262,2.741-1.385,3.884-4.708,4.639-7.466.516-1.883,1.119-3.735,1.573-5.634.33-1.379,1.085-2.96.919-4.394-.062-.539-.946-1.12-.887-.291" transform="translate(-84.933 -406.38)" fill="#fff"/>
    <path id="Tracé_644" data-name="Tracé 644" d="M155.118,602.228a5.279,5.279,0,0,1,2.744,1.459,7.365,7.365,0,0,1,2.226,3.036c.743,1.57,1.378,3.377,2.792,4.483.452.353,1.265-.645.833-1.026-1.863-1.646-2.429-4.163-3.862-6.12a7.6,7.6,0,0,0-2.348-1.969,4.4,4.4,0,0,0-2.747-1c-.561.042-.062,1.122.361,1.14" transform="translate(-116.611 -453.651)" fill="#fff"/>
    <path id="Tracé_645" data-name="Tracé 645" d="M202.879,577.623a12.671,12.671,0,0,1,4.413,3.3c1.379,1.461,2.156,3.4,3.321,5.018a59.263,59.263,0,0,0,4.123,4.941c.76.848,1.5,1.717,2.337,2.488a14.534,14.534,0,0,1,1.845,1.491c.38.493,1.123-.591.8-1.03-.534-.724-1.516-1.111-2.185-1.724-.792-.725-1.486-1.551-2.207-2.345a52.743,52.743,0,0,1-4.421-5.286c-1.192-1.719-2.068-3.6-3.651-5.018a11.738,11.738,0,0,0-4.5-2.931c-.614-.162-.258.952.122,1.094" transform="translate(-152.776 -435.109)" fill="#fff"/>
    <path id="Tracé_646" data-name="Tracé 646" d="M248.545,554.745a20.439,20.439,0,0,1,5.757,5.238,87.945,87.945,0,0,0,5.845,6.766c2.161,2.178,4.321,4.431,6.681,6.394a16.708,16.708,0,0,0,3.2,2.174,22.489,22.489,0,0,1,4.219,2.1c.437.347,1.13-.841.641-1.215a12.689,12.689,0,0,0-2.825-1.485,18.2,18.2,0,0,1-3.927-2.189,78.591,78.591,0,0,1-7.27-6.668,81.007,81.007,0,0,1-5.806-6.466,21.045,21.045,0,0,0-6.386-5.6c-.756-.388-.636.671-.132.953" transform="translate(-187.277 -417.898)" fill="#fff"/>
    <path id="Tracé_647" data-name="Tracé 647" d="M301.99,538.242c5.77,2.624,8.927,8.554,13.456,12.718a85.041,85.041,0,0,0,7.872,6.555,33.058,33.058,0,0,0,8.353,4.363c.555.2.948-1.15.364-1.343-6.45-2.125-11.622-6.613-16.578-11.108-4.523-4.1-7.576-9.764-13.475-12.131-.78-.313-.491.718.009.945" transform="translate(-227.55 -405.469)" fill="#fff"/>
    <path id="Tracé_648" data-name="Tracé 648" d="M364.827,526.723c1.018-.3,3.063,1.635,3.8,2.227.971.776,1.78,1.723,2.69,2.565.744.688,1.551,1.3,2.311,1.973,2.866,2.529,5.194,5.553,8.22,7.923a35.2,35.2,0,0,0,8.086,4.816,24.517,24.517,0,0,0,4.364,1.418,18.043,18.043,0,0,0,4.638.75c.554-.035.688-1.391.022-1.351a10.641,10.641,0,0,1-2.752-.437c-.842-.173-1.694-.3-2.528-.518a27.252,27.252,0,0,1-5.2-2,36.853,36.853,0,0,1-9.045-6.372c-1.35-1.284-2.593-2.676-3.92-3.983s-2.81-2.35-4.157-3.6a34.961,34.961,0,0,0-4.092-3.351c-.92-.63-2.041-1.483-3.206-1.035-.563.216.293,1.119.767.977" transform="translate(-274.626 -396.701)" fill="#fff"/>
    <path id="Tracé_649" data-name="Tracé 649" d="M429.142,514.017c2.89.885,4.475,4.185,6.745,5.991,2.742,2.183,6.063,3.3,9.2,4.767a33.873,33.873,0,0,0,10.017,3.365c4.411.589,8.824.122,13.252.021.57-.013.888-1.359.223-1.349-3.83.053-7.7.47-11.52.147a27.006,27.006,0,0,1-6.07-1.077,43.916,43.916,0,0,1-4.979-2.1c-3.351-1.568-6.888-2.749-9.86-5.021-2.393-1.828-4.065-5.007-7.136-5.8-.748-.193-.355.906.131,1.055" transform="translate(-323.471 -387.129)" fill="#fff"/>
    <path id="Tracé_650" data-name="Tracé 650" d="M489.167,504.053c3.01.784,5.719,2.447,8.644,3.482a78.28,78.28,0,0,0,8.922,2.453c3.175.714,6.461,1.118,9.681,1.59a68.066,68.066,0,0,0,9.585.679c.606,0,.826-1.343.26-1.347a72.8,72.8,0,0,1-9.3-.634c-3.366-.461-6.81-.892-10.126-1.628a83.131,83.131,0,0,1-8.9-2.375c-3.017-1.033-5.836-2.846-9.025-3.291-.635-.089-.129.971.255,1.071" transform="translate(-368.767 -379.61)" fill="#fff"/>
    <path id="Tracé_651" data-name="Tracé 651" d="M580.683,487.009a33.182,33.182,0,0,1,3.257.683c1.13.423,2.213.913,3.369,1.271a20.33,20.33,0,0,0,3.046.84c1.18.172,2.388.127,3.575.223a39.889,39.889,0,0,0,7.419-.217,47.807,47.807,0,0,0,6.1-.714c.542-.13.812-1.46.218-1.322a84.509,84.509,0,0,1-13.532.9c-1.142-.089-2.3-.06-3.438-.2a20.853,20.853,0,0,1-3.517-.932c-1.152-.355-2.244-.868-3.391-1.231-1.063-.336-2.155-.267-3.229-.517-.562-.131-.365,1.091.123,1.221" transform="translate(-437.906 -366.63)" fill="#fff"/>
    <path id="Tracé_652" data-name="Tracé 652" d="M652.237,456.431a10.372,10.372,0,0,1,2.934.2,23.208,23.208,0,0,0,2.563.065c1.908-.016,3.817-.024,5.716-.225a31.129,31.129,0,0,0,7.952-1.629c.534-.206-.088-1.355-.638-1.178a39.356,39.356,0,0,1-8.5,1.635c-1.891.176-3.81.192-5.709.186-1.586,0-3.32-.542-4.872-.154-.584.146.062,1.186.557,1.1" transform="translate(-491.665 -342.379)" fill="#fff"/>
    <path id="Tracé_653" data-name="Tracé 653" d="M714.442,414.666c1.332-.37,2.784-.4,4.149-.635q1.694-.3,3.389-.576c1.65-.27,3.751-.441,5.1-1.529.421-.339-.235-1.5-.74-1.088-1.338,1.084-3.721,1.18-5.344,1.438-1.02.162-2.037.337-3.055.511a21.719,21.719,0,0,0-3.838.682c-.506.186-.185,1.342.338,1.2" transform="translate(-538.762 -310.006)" fill="#fff"/>
    <path id="Tracé_654" data-name="Tracé 654" d="M778.057,24.444a11.732,11.732,0,0,0-.081,4.966,53.693,53.693,0,0,1,.529,7.09c-.012,4.636.339,9.262.337,13.9a94.853,94.853,0,0,1-.806,12.977,59.588,59.588,0,0,1-2.839,12.4c-.108.29.246.725.4.31A61.7,61.7,0,0,0,778.511,63.2a98.427,98.427,0,0,0,.775-13.963c-.037-4.834-.2-9.672-.293-14.5-.059-3.214-1.349-6.827-.4-9.957.077-.254-.449-.624-.539-.335" transform="translate(-585.047 -18.369)" fill="#fff"/>
    <path id="Tracé_655" data-name="Tracé 655" d="M732.886,166.249c.276,1.436,1.4,2.62,2.288,3.723.876,1.087,1.725,2.194,2.619,3.267a68.2,68.2,0,0,0,6.449,7.038c.223.2.475-.4.273-.582a68.781,68.781,0,0,1-6.021-6.311c-.843-.981-1.657-1.984-2.455-3-.938-1.194-2.3-2.468-2.591-4-.047-.243-.623-.45-.561-.129" transform="translate(-553.125 -125.348)" fill="#fff"/>
    <path id="Tracé_656" data-name="Tracé 656" d="M708.063,203.517a10.028,10.028,0,0,0,3.189,3.778,47.686,47.686,0,0,0,4.578,3.609c.9.6,1.842,1.143,2.763,1.711a12.888,12.888,0,0,1,3.287,2.313c.213.261.447-.321.284-.519a8.052,8.052,0,0,0-1.955-1.475c-1.13-.722-2.3-1.386-3.448-2.07a33.868,33.868,0,0,1-3.782-2.68c-1.55-1.234-3.617-2.682-4.344-4.608-.086-.228-.683-.362-.571-.059" transform="translate(-534.384 -153.467)" fill="#fff"/>
    <path id="Tracé_657" data-name="Tracé 657" d="M676.385,234.841c.823,2.244,3.1,3.863,4.984,5.184,2.1,1.474,4.382,2.691,6.436,4.228.236.176.418-.446.2-.607-1.9-1.391-4-2.491-5.958-3.783s-4.285-2.783-5.192-5.034c-.105-.262-.611-.376-.469.012" transform="translate(-510.467 -177.051)" fill="#fff"/>
    <path id="Tracé_658" data-name="Tracé 658" d="M651.149,258.217c.351,1.684,2.285,2.894,3.616,3.763a25.61,25.61,0,0,0,5.093,2.634c.273.1.265-.538.014-.629a26.559,26.559,0,0,1-4.662-2.308c-1.219-.741-3.167-1.823-3.556-3.339-.06-.233-.582-.491-.5-.121" transform="translate(-491.434 -194.743)" fill="#fff"/>
    <path id="Tracé_659" data-name="Tracé 659" d="M620.228,272.025c.829,1.53,1.757,3.013,2.718,4.462a16.2,16.2,0,0,0,3.1,3.9c.266.21.369-.414.164-.573a16.066,16.066,0,0,1-3.121-3.9c-.864-1.3-1.7-2.627-2.447-3.995-.16-.292-.619-.273-.417.1" transform="translate(-468.064 -205.077)" fill="#fff"/>
    <path id="Tracé_660" data-name="Tracé 660" d="M743.941,124.217a15.868,15.868,0,0,0,1.977,4.3c.891,1.611,1.849,3.186,2.824,4.747a62.266,62.266,0,0,0,5.718,8.162c.225.257.424-.354.25-.551a60.28,60.28,0,0,1-5.3-7.379c-.949-1.479-1.868-2.98-2.729-4.512a17.064,17.064,0,0,1-2.174-4.642c-.046-.245-.625-.452-.564-.13" transform="translate(-561.469 -93.625)" fill="#fff"/>
    <path id="Tracé_661" data-name="Tracé 661" d="M797.881,65.341a4.962,4.962,0,0,1-1.119,2.585,28.164,28.164,0,0,1-1.822,2.615,36.482,36.482,0,0,1-4.834,5.2c-.218.19.145.732.354.553a36.2,36.2,0,0,0,4.963-5.307,29.031,29.031,0,0,0,2-2.927,4.315,4.315,0,0,0,.975-2.533c-.021-.215-.538-.488-.516-.186" transform="translate(-596.263 -49.213)" fill="#fff"/>
    <path id="Tracé_662" data-name="Tracé 662" d="M800.241,95.848c-.538,2.744-2.624,5.182-4.406,7.226A50.44,50.44,0,0,1,790,108.8c-.228.189.181.728.407.543a48.9,48.9,0,0,0,6.307-6.265c1.672-1.979,3.639-4.343,4.051-6.983.038-.246-.457-.584-.523-.25" transform="translate(-596.183 -72.233)" fill="#fff"/>
    <path id="Tracé_663" data-name="Tracé 663" d="M799.72,139.262a33.625,33.625,0,0,1-6.372,7.028c-2.3,2.079-4.7,4.036-7.082,6.019-.228.19.208.717.437.526,2.481-2.062,4.983-4.1,7.365-6.276,2.224-2.033,4.706-4.242,6.145-6.937.119-.223-.337-.616-.494-.36" transform="translate(-593.368 -105.041)" fill="#fff"/>
    <path id="Tracé_664" data-name="Tracé 664" d="M754.2,92.6c.8,1.085,1.294,2.444,2.011,3.6a35.306,35.306,0,0,0,2.218,3.152,27.8,27.8,0,0,0,4.483,4.658c.274.218.386-.43.17-.6a27.538,27.538,0,0,1-7.073-8.531,17.035,17.035,0,0,0-1.3-2.413c-.152-.2-.729-.171-.506.132" transform="translate(-569.179 -69.692)" fill="#fff"/>
    <path id="Tracé_665" data-name="Tracé 665" d="M764.325,67.635c.034-.009.068-.019.1-.031l-.382-.207C765,69.23,766,71.048,767.05,72.832a22.336,22.336,0,0,0,3.4,4.875c.284.273.418-.315.222-.5a21.1,21.1,0,0,1-3.334-4.727c-.992-1.693-1.9-3.431-2.826-5.159a.384.384,0,0,0-.437-.189l-.048.019c-.319.1.064.549.3.486" transform="translate(-576.537 -50.651)" fill="#fff"/>
    <path id="Tracé_666" data-name="Tracé 666" d="M774.066,47.945c.984,1.106,1.492,2.806,2.15,4.124a7.318,7.318,0,0,0,1.675,2.69c.317.229.376-.364.157-.52-1.041-.743-1.592-2.622-2.133-3.731a11.918,11.918,0,0,0-1.585-2.864c-.234-.258-.474.066-.264.3" transform="translate(-584.148 -35.886)" fill="#fff"/>
    <path id="Tracé_667" data-name="Tracé 667" d="M790.376,23.447a15.348,15.348,0,0,1-2.614,5.526c-.155.211.209.73.39.491a17.084,17.084,0,0,0,1.678-3,11.379,11.379,0,0,0,1.03-2.71c.044-.241-.418-.634-.483-.309" transform="translate(-594.517 -17.603)" fill="#fff"/>
    <path id="Tracé_668" data-name="Tracé 668" d="M793.344,40.867c-.6,1.4-1.186,2.812-1.811,4.2a14.926,14.926,0,0,1-2.155,4.065c-.176.19.091.758.331.5a14.982,14.982,0,0,0,2.183-4.089c.633-1.4,1.222-2.827,1.827-4.243.1-.226-.247-.737-.375-.439" transform="translate(-595.722 -30.775)" fill="#fff"/>
  </g>
</svg>
