<svg class="marges" xmlns="http://www.w3.org/2000/svg" viewBox="0 0 1366.814 129.817">
  <path class="marges" id="marge_haute" d="M-18101.477-6204.181h-1366.537l-.277-112.062c.041.026,5.908,3.69,16.383,9.015a431.114,431.114,0,0,0,45.752,19.832,474.911,474.911,0,0,0,70.023,19.832,452.294,452.294,0,0,0,89.2,9.015c4.621,0,9.295-.075,13.895-.222,64.754-2.073,100.682-17.945,138.719-34.75,20.912-9.239,42.535-18.791,69.764-26.268a366.367,366.367,0,0,1,45.77-9.408c8.736-1.246,17.926-2.266,27.311-3.032,9.854-.8,20.254-1.354,30.91-1.634,3.4-.09,6.813-.135,10.131-.135,9.484,0,18.734.375,27.494,1.113,8.395.708,16.627,1.775,24.465,3.17a231.058,231.058,0,0,1,41.85,11.506c25.416,9.628,46.781,22.737,69.4,36.615l.021.014c45.406,27.861,96.871,59.439,197.486,71.765,11.877,1.456,23.959,2.552,35.914,3.259,11.346.671,22.918,1.012,34.4,1.012a662.719,662.719,0,0,0,89.393-6.315c28.289-3.819,54.959-8.934,79.564-13.893,4.975-1,9.959-2.019,14.777-3l.877-.179c22-4.488,42.781-8.727,62.824-11.869,22.459-3.522,40.8-5.163,57.723-5.163a207.9,207.9,0,0,1,36.963,3.094,173.263,173.263,0,0,1,17.916,4.188,165,165,0,0,1,17.6,6.235c.125,9.691.223,19.2.293,28.265Z" transform="translate(19468.291 6333.998)" />
</svg>
