<svg class="marges" xmlns="http://www.w3.org/2000/svg" viewBox="0 0 1365.469 109.089">
  <path class="marges" id="marge_basse" d="M288.949,896.089c-4.714,0-9.538-.127-14.339-.379a388.538,388.538,0,0,1-54.639-6.894A457.628,457.628,0,0,1,168.8,875.51,557.584,557.584,0,0,1,81.576,838.7c-11.374-5.944-22.714-12.331-33.7-18.984-8.792-5.322-17.381-10.826-25.53-16.358C8.359,793.865.584,787.622.507,787.56V787H1365.975c-.122,52.936-.221,88.3-.232,92.161v.081c-.182-.047-19.583-4.961-52.126-9.832-19.067-2.854-38.82-5.129-58.71-6.76-24.862-2.039-50.01-3.073-74.743-3.073-62.964,0-123.667,6.616-180.423,19.665a354.324,354.324,0,0,1-39.175,6.75,327.219,327.219,0,0,1-36.831,2.107c-9.881,0-19.89-.467-29.75-1.39-9.353-.875-18.869-2.188-28.281-3.9A375.3,375.3,0,0,1,813.1,869.094c-14.974-5.025-30.7-11.2-48.084-18.891-15.367-6.8-30.148-13.922-44.442-20.813l-.02-.01c-22.9-11.039-44.524-21.467-65.665-29.169A232.1,232.1,0,0,0,623.512,791,148.13,148.13,0,0,0,592.5,787.56c-48.665,0-87.874,23.573-129.385,48.53-24.083,14.478-48.985,29.45-77.222,40.837a264.757,264.757,0,0,1-45.116,13.851,249.051,249.051,0,0,1-24.963,3.918A257.954,257.954,0,0,1,288.949,896.089Z" transform="translate(-0.507 -787)" />
</svg>
