<svg xmlns="http://www.w3.org/2000/svg" width="32" height="32" viewBox="0 0 32 32">
  <g id="Groupe_1498" data-name="Groupe 1498" transform="translate(0 0)">
    <path id="Tracé_1725" data-name="Tracé 1725" d="M31,20.629H29.571a13.6,13.6,0,0,0-.288-2.418h.506A1,1,0,0,0,30.6,16.62a11.191,11.191,0,0,0-5.669-3.5A28.817,28.817,0,0,0,17,11.847V9.72h.63a1,1,0,0,0,0-2H14.37a1,1,0,0,0,0,2H15v2.127a28.817,28.817,0,0,0-7.926,1.27A11.191,11.191,0,0,0,1.4,16.62a1,1,0,0,0,.807,1.591h.506a13.6,13.6,0,0,0-.288,2.418H1a1,1,0,0,0,0,2H2.514a13.393,13.393,0,0,0,1.35,4.5,13.7,13.7,0,0,0,3.857,4.667,1,1,0,0,0,.61.208H23.669a1,1,0,0,0,.61-.208,13.7,13.7,0,0,0,3.857-4.667,13.392,13.392,0,0,0,1.35-4.5H31a1,1,0,0,0,0-2Zm-15.021-6.8h.043c4.456,0,8.575.927,11.071,2.379H4.908c2.5-1.452,6.614-2.376,11.071-2.379ZM23.321,30H8.679a11.59,11.59,0,0,1-3.91-11.789H27.231A11.59,11.59,0,0,1,23.321,30ZM10.725,3.9A2.906,2.906,0,0,1,10.912.365a1,1,0,1,1,1.546,1.269c-.381.464-.316.636.054,1.371a3.1,3.1,0,0,1,.007,3.467,1,1,0,1,1-1.667-1.1c.331-.5.233-.749-.127-1.464Zm-4.5,2.813a2.906,2.906,0,0,1,.187-3.538A1,1,0,1,1,7.963,4.446c-.381.464-.316.636.054,1.371a3.1,3.1,0,0,1,.007,3.467,1,1,0,1,1-1.667-1.1c.331-.5.233-.75-.127-1.464Zm-4.5,2.813A2.905,2.905,0,0,1,1.921,5.99,1,1,0,1,1,3.467,7.259c-.381.464-.316.636.054,1.371A3.1,3.1,0,0,1,3.528,12.1a1,1,0,1,1-1.667-1.1c.331-.5.233-.749-.127-1.464Z"/>
  </g>
</svg>
