<svg xmlns="http://www.w3.org/2000/svg" viewBox="0 0 446 512"><!--! Font Awesome Pro 6.1.1 by @fontawesome - https://fontawesome.com License - https://fontawesome.com/license (Commercial License) Copyright 2022 Fonticons, Inc. --><path d="M239,322.9v-114.9c0-8.75-7.25-16-16-16s-15.1,7.25-15.1,16l-.9,114.9c-18.62,6.62-32,24.25-32,45.13,0,26.5,21.5,48,48,48s48-21.5,48-48c0-20.93-13.4-38.53-32-45.13Zm96-44.4V112C335,50.13,284.88,0,223.9,0S111,50.13,111,112v166.5c-19.75,24.75-32,55.5-32,89.5,0,79.5,64.5,143.1,144,143.1s144-63.6,144-143.1c0-34-12.2-64.9-32-89.5Zm-112,169.5c-44.13,0-80-35.87-80-79.1,0-25.5,12.25-48.88,32-63.75V112.85c0-26.5,21.5-48,48-48s48,21.5,48,48v192.3c19.75,14.75,32,38.25,32,63.75,0,43.2-35.9,79.1-80,79.1Z"/></svg>